<svg width="363" height="156" viewBox="0 0 363 156" fill="none" xmlns="http://www.w3.org/2000/svg">
<path d="M46.6999 102.519C64.2508 115.403 85.6178 121.842 106.841 120.642C128.065 119.442 147.706 110.684 162.124 95.9919C176.543 81.2998 184.762 61.6694 185.258 40.7385C185.753 19.8076 178.493 -1.00468 164.821 -17.8415C151.149 -34.6783 131.993 -46.398 110.903 -50.8289C89.8128 -55.2598 68.2185 -52.1014 50.1217 -41.9389C32.0249 -31.7765 18.6526 -15.2991 12.4829 4.43972C6.31313 24.1786 7.76431 45.8406 16.5675 65.4114L21.5696 63.4579C13.3139 45.1042 11.953 24.7894 17.739 6.27808C23.525 -12.2332 36.0657 -27.6859 53.0371 -37.2163C70.0085 -46.7467 90.2598 -49.7087 110.038 -45.5534C129.817 -41.3981 147.781 -30.4072 160.603 -14.6175C173.424 1.17226 180.234 20.6902 179.769 40.3194C179.304 59.9486 171.596 78.3582 158.074 92.1366C144.552 105.915 126.133 114.128 106.229 115.254C86.3257 116.379 66.2875 110.341 49.8281 98.2581L46.6999 102.519Z" fill="#D9D9D9"/>
<ellipse cx="29.5" cy="28" rx="29.5" ry="28" transform="matrix(-1 0 0 1 69 58)" fill="#D9D9D9"/>
<path d="M219 58.0057C219 42.5417 256.865 -93.9943 248.5 -79.9943C248.5 -79.9943 278 42.5417 278 58.0057C278 73.4696 264.792 86.0057 248.5 86.0057C232.208 86.0057 219 73.4696 219 58.0057Z" fill="#B457FA" fill-opacity="0.3"/>
<path d="M304 75.0057C304 59.5417 341.865 -76.9943 333.5 -62.9943C333.5 -62.9943 363 59.5417 363 75.0057C363 90.4696 349.792 103.006 333.5 103.006C317.208 103.006 304 90.4696 304 75.0057Z" fill="#B457FA" fill-opacity="0.3"/>
<ellipse cx="42" cy="37" rx="42" ry="37" transform="matrix(-1 0 0 1 139 -3)" fill="#D9D9D9" fill-opacity="0.2"/>
</svg>
