<svg width="88" height="90" viewBox="0 0 88 90" fill="none" xmlns="http://www.w3.org/2000/svg">
<path d="M87.4435 0.492836C86.9789 0.0194696 86.3209 -0.119583 85.7368 0.132051L1.07767 36.6306C0.469727 36.8927 0.0512955 37.5312 0.00427592 38.268C-0.0427437 39.0043 0.290276 39.7053 0.858393 40.0644L28.097 57.2803C28.6303 57.617 29.2844 57.5968 29.8008 57.2262L50.1388 42.6275C50.1388 42.6275 35.1945 59.2688 34.9308 59.5809C34.6671 59.893 34.3198 60.1798 34.3198 60.9272C34.3198 61.8149 34.319 88.0845 34.319 88.0845C34.3159 88.8559 34.724 89.5535 35.3514 89.8477C35.5579 89.9445 35.7743 89.9915 35.9888 89.9915C36.4272 89.9915 36.858 89.7951 37.1779 89.4268L51.2283 73.2508L67.253 83.9633C67.5131 84.1371 67.8058 84.2254 68.0999 84.2254C68.3169 84.2254 68.5347 84.1773 68.7403 84.0803C69.2248 83.8517 69.5867 83.3778 69.7174 82.8007L87.9472 2.38042C88.1026 1.69349 87.9087 0.965385 87.4435 0.492836Z" fill="#B457FA" fill-opacity="0.3"/>
</svg>
