<svg width="167" height="127" viewBox="0 0 167 127" fill="none" xmlns="http://www.w3.org/2000/svg">
<path d="M26.637 104.843C33.0809 110.027 40.9259 112.618 48.7181 112.135C56.5104 111.652 63.7216 108.128 69.0155 102.216C74.3093 96.3046 77.3269 88.4059 77.5089 79.9839C77.6909 71.562 75.0251 63.1877 70.0055 56.4131C64.9858 49.6385 57.9527 44.9228 50.2094 43.1399C42.4661 41.3571 34.5377 42.6279 27.8934 46.717C21.2491 50.806 16.3394 57.4361 14.0741 65.3784C11.8089 73.3207 12.3417 82.0369 15.5738 89.9116L17.4103 89.1256C14.3792 81.7406 13.8796 73.5665 16.0039 66.1181C18.1283 58.6697 22.7326 52.452 28.9637 48.6172C35.1948 44.7825 42.6302 43.5907 49.8919 45.2626C57.1537 46.9346 63.7494 51.357 68.4569 57.7103C73.1644 64.0637 75.6644 71.9171 75.4937 79.8153C75.323 87.7135 72.4931 95.121 67.5285 100.665C62.5638 106.209 55.8011 109.514 48.4934 109.967C41.1858 110.42 33.8287 107.99 27.7855 103.128L26.637 104.843Z" fill="#D9D9D9"/>
<ellipse cx="10.831" cy="11.2664" rx="10.831" ry="11.2664" transform="matrix(-1 0 0 1 33.6625 84.2726)" fill="#D9D9D9"/>
<path d="M106.787 55.9318C106.787 49.7096 120.69 -5.22854 117.618 0.404648C117.618 0.404648 128.449 49.7096 128.449 55.9318C128.449 62.1541 123.6 67.1982 117.618 67.1982C111.636 67.1982 106.787 62.1541 106.787 55.9318Z" fill="#D9D9D9" fill-opacity="0.1"/>
<path d="M145.338 62.7721C145.338 56.5498 159.241 1.61173 156.169 7.24492C156.169 7.24492 167 56.5498 167 62.7721C167 68.9943 162.151 74.0385 156.169 74.0385C150.188 74.0385 145.338 68.9943 145.338 62.7721Z" fill="#D9D9D9" fill-opacity="0.1"/>
<ellipse cx="15.4204" cy="14.8877" rx="15.4204" ry="14.8877" transform="matrix(-1 0 0 1 56.8414 57.2726)" fill="#D9D9D9" fill-opacity="0.2"/>
</svg>
